<svg width="1290" height="2500" viewBox="0 0 1290 2500" fill="none"
    xmlns="http://www.w3.org/2000/svg">
    <g clip-path="url(#clip0_384_26)">
        <path
            d="M1289.91 744.479L644.859 372.264L0 744.479V372.264L644.953 0.0498047L1290 372.264V744.479H1289.91Z"
            fill="#A435F0" />
        <path
            d="M0 1057.06H337.868V1877.56C337.868 2089.55 496.224 2192.9 644.953 2192.9C794.964 2192.9 952.163 2086.8 952.163 1874.72V1057.06H1290V1897.13C1290 2092.39 1228.59 2243.09 1105.74 2346.41C982.821 2449.67 829.31 2499.95 642.109 2499.95C455.096 2499.95 301.491 2449.76 181.513 2346.41C61.4107 2243.18 0 2098.08 0 1905.47V1057.06Z"
            fill="white" />
    </g>
    <defs>
        <clipPath id="clip0_384_26">
            <rect width="1290" height="2500" fill="white" />
        </clipPath>
    </defs>
</svg>