<svg width="22" height="22" viewBox="0 0 22 22" fill="none" xmlns="http://www.w3.org/2000/svg">
<path d="M9 12C9.42945 12.5741 9.97736 13.0492 10.6066 13.3929C11.2357 13.7367 11.9315 13.9411 12.6467 13.9923C13.3618 14.0436 14.0796 13.9404 14.7513 13.6898C15.4231 13.4392 16.0331 13.0471 16.54 12.54L19.54 9.54C20.4508 8.59699 20.9548 7.33398 20.9434 6.023C20.932 4.71201 20.4061 3.45795 19.4791 2.53091C18.5521 1.60387 17.298 1.07803 15.987 1.06663C14.676 1.05524 13.413 1.55921 12.47 2.47L10.75 4.18" stroke="black" stroke-width="2" stroke-linecap="round" stroke-linejoin="round"/>
<path d="M13 10C12.5705 9.42587 12.0226 8.95081 11.3934 8.60706C10.7642 8.2633 10.0684 8.05888 9.3533 8.00766C8.63816 7.95645 7.92037 8.05963 7.24861 8.31021C6.57685 8.5608 5.96684 8.95293 5.45996 9.46L2.45996 12.46C1.54917 13.403 1.04519 14.666 1.05659 15.977C1.06798 17.288 1.59382 18.542 2.52086 19.4691C3.4479 20.3961 4.70197 20.922 6.01295 20.9334C7.32393 20.9448 8.58694 20.4408 9.52995 19.53L11.24 17.82" stroke="black" stroke-width="2" stroke-linecap="round" stroke-linejoin="round"/>
</svg>
